{
    "asset" : {
        "generator" : "Khronos glTF Blender I/O v1.7.33",
        "version" : "2.0"
    },
    "scene" : 0,
    "scenes" : [
        {
            "name" : "Scene",
            "nodes" : [
                0
            ]
        }
    ],
    "nodes" : [
        {
            "mesh" : 0,
            "name" : "Cube",
            "scale" : [
                -3.8657541275024414,
                1,
                2.76981520652771
            ],
            "translation" : [
                0,
                1.0228171348571777,
                0
            ]
        }
    ],
    "materials" : [
        {
            "doubleSided" : true,
            "name" : "Material",
            "pbrMetallicRoughness" : {
                "baseColorFactor" : [
                    0.8000000715255737,
                    0.037327852100133896,
                    0.03480767458677292,
                    1
                ],
                "metallicFactor" : 0,
                "roughnessFactor" : 0.3494773507118225
            }
        }
    ],
    "meshes" : [
        {
            "name" : "Cube",
            "primitives" : [
                {
                    "attributes" : {
                        "POSITION" : 0,
                        "NORMAL" : 1,
                        "TEXCOORD_0" : 2
                    },
                    "indices" : 3,
                    "material" : 0
                }
            ]
        }
    ],
    "accessors" : [
        {
            "bufferView" : 0,
            "componentType" : 5126,
            "count" : 4506,
            "max" : [
                1,
                5.2149152755737305,
                1
            ],
            "min" : [
                -1,
                -1,
                -1.0157668590545654
            ],
            "type" : "VEC3"
        },
        {
            "bufferView" : 1,
            "componentType" : 5126,
            "count" : 4506,
            "type" : "VEC3"
        },
        {
            "bufferView" : 2,
            "componentType" : 5126,
            "count" : 4506,
            "type" : "VEC2"
        },
        {
            "bufferView" : 3,
            "componentType" : 5123,
            "count" : 6954,
            "type" : "SCALAR"
        }
    ],
    "bufferViews" : [
        {
            "buffer" : 0,
            "byteLength" : 54072,
            "byteOffset" : 0
        },
        {
            "buffer" : 0,
            "byteLength" : 54072,
            "byteOffset" : 54072
        },
        {
            "buffer" : 0,
            "byteLength" : 36048,
            "byteOffset" : 108144
        },
        {
            "buffer" : 0,
            "byteLength" : 13908,
            "byteOffset" : 144192
        }
    ],
    "buffers" : [
        {
            "byteLength" : 158100,
            "uri" : "data:application/octet-stream;base64,"
        }
    ]
}
